<?xml version="1.0" standalone="no"?><!DOCTYPE svg PUBLIC "-//W3C//DTD SVG 1.1//EN" "http://www.w3.org/Graphics/SVG/1.1/DTD/svg11.dtd"><svg t="1597806994204" class="icon" viewBox="0 0 1024 1024" version="1.1" xmlns="http://www.w3.org/2000/svg" p-id="2443" xmlns:xlink="http://www.w3.org/1999/xlink" width="200" height="200"><defs><style type="text/css"></style></defs><path d="M747.642514 3.785143C742.500571 1.250743 736.965486 0 731.428571 0c-7.892114 0-15.714743 2.536229-22.213486 7.537371L215.464229 292.571429 36.571429 292.571429c-20.214857 0-36.571429 16.356571-36.571429 36.571429l0 365.714286c0 20.214857 16.356571 36.571429 36.571429 36.571429l178.8928 0 493.750857 285.035886C715.713829 1021.463771 723.536457 1024 731.428571 1024c5.535086 0 11.072-1.250743 16.213943-3.785143C760.107886 1014.036114 768 1001.3568 768 987.428571L768 36.571429C768 22.6432 760.107886 9.963886 747.642514 3.785143zM73.144686 365.714286l124.035657 0 0 292.571429L73.144686 658.285714 73.144686 365.714286zM694.857143 923.713829 252.035657 668.072229 235.072 658.285714l-1.322057 0L233.749943 365.714286l1.322057 0 16.963657-9.786514L694.857143 100.286171 694.857143 923.713829z" p-id="2444" fill="#d81e06"></path><path d="M877.714286 219.428571c-20.214857 0-36.571429 16.356571-36.571429 36.571429l0 512c0 20.214857 16.356571 36.571429 36.571429 36.571429s36.571429-16.356571 36.571429-36.571429L914.285714 256C914.285714 235.785143 897.929143 219.428571 877.714286 219.428571z" p-id="2445" fill="#d81e06"></path><path d="M987.428571 365.714286c-20.214857 0-36.571429 16.356571-36.571429 36.571429l0 219.428571c0 20.214857 16.356571 36.571429 36.571429 36.571429s36.571429-16.356571 36.571429-36.571429L1024 402.285714C1024 382.070857 1007.643429 365.714286 987.428571 365.714286z" p-id="2446" fill="#d81e06"></path></svg>