<?xml version="1.0" standalone="no"?><!DOCTYPE svg PUBLIC "-//W3C//DTD SVG 1.1//EN" "http://www.w3.org/Graphics/SVG/1.1/DTD/svg11.dtd"><svg t="1578383753924" class="icon" viewBox="0 0 1024 1024" version="1.1" xmlns="http://www.w3.org/2000/svg" p-id="2628" xmlns:xlink="http://www.w3.org/1999/xlink" width="200" height="200"><defs><style type="text/css"></style></defs><path d="M882 513.3c0 93.9-35.2 183.4-99 252.1-0.2 0.2-0.3 0.4-0.5 0.5l-17.4 17c-5.6 5.4-14.3 5.6-20.1 0.5-22.4-19.9-53-32-82.6-43.7-40.4-16-78.6-31-91.3-65.3-0.5-1.2-0.7-2.5-0.9-3.8-1.7-19.3-1.6-34.1-1.5-49.9 0-4.4 0.1-9 0.1-13.8 0-5.4 3-10.4 7.7-13 5.5-4 22.8-32.9 25.8-61 0.8-7.1 6.4-12.6 13.5-13.2 1.9-0.2 9.5-5.5 12.3-28.8 1.4-12-4.4-16.2-4.4-16.2-5.9-3.6-8.5-10.8-6.3-17.3 2.6-7.7 11.1-35.1 13.6-66.6 2.5-30.6-1.6-55.5-11.8-71.8-9.1-14.6-23.1-23.1-42.9-25.8-4.6-0.6-8.5-3.3-10.8-7.3-6.6-11.6-27.1-18.5-54.8-18.6-44.9 0.8-77 13.6-95.4 37.8-12.2 16.1-18.9 37.8-20.1 64.6-1.1 25.3 2.8 55.2 11.5 88.8 1.6 6.3-1 12.9-6.6 16.3 0 0-5.9 4.2-4.4 16.2 2.8 23.3 10.4 28.6 12.3 28.8 7.1 0.6 12.8 6.1 13.5 13.2 3 28 20.9 57 26.6 60.9 4.8 2.6 7.7 7.6 7.7 13 0 4.7 0 9.3 0.1 13.6 0.1 15.8 0.3 30.7-1.5 50-0.1 1.3-0.4 2.6-0.9 3.8-12.7 34.3-51 49.3-91.6 65.3-11 4.3-22.3 8.8-33.2 13.6-7.5 3.3-16.2 0-19.5-7.5-3.3-7.5 0-16.2 7.5-19.5 11.5-5.2 23.2-9.7 34.5-14.2 34.8-13.7 65-25.5 74-46.4 1.4-16.8 1.3-29.9 1.2-45 0-2.2 0-4.5-0.1-6.9-13.6-13.6-27.6-42.5-32.7-68.1-4.8-2.5-9.3-6.2-13.1-11-7.4-9.4-12.2-23-14.2-40.3-2-16.4 3-29 9.6-37.2-18.1-75.2-12.8-132.4 15.8-170.1 24.2-31.8 64.1-48.5 118.6-49.5h0.3c35.7 0 62.5 9.6 76.5 27.3 25.3 5 44.6 17.9 57.4 38.4 30.4 48.9 12.6 125 4 154.4 6.5 8.2 11.2 20.6 9.2 36.7-2.1 17.3-6.9 30.8-14.2 40.3-3.8 4.8-8.2 8.5-13 11-3.3 17.3-9.8 32.5-13.9 40.7-4.4 9.1-10.7 20.1-18.1 27.5 0 2.4 0 4.7-0.1 7-0.1 15-0.2 28 1.2 44.8 9.1 20.8 39.1 32.7 73.7 46.4 26.5 10.5 56.1 22.1 80.6 40.4l7.8-7.5c58.6-63.2 90.9-145.4 90.9-231.6 0-46-9-90.6-26.8-132.6-17.2-40.6-41.7-77-73-108.3-31.3-31.3-67.7-55.9-108.3-73-42-17.8-86.6-26.8-132.6-26.8s-90.6 9-132.6 26.8c-40.6 17.2-77 41.7-108.3 73-31.3 31.3-55.8 67.7-73 108.3-17.8 42-26.8 86.6-26.8 132.6s9 90.6 26.8 132.6c17.2 40.6 41.7 77 73 108.3 31.3 31.3 67.7 55.8 108.3 73 42 17.8 86.6 26.8 132.6 26.8 57.9 0 115.1-14.8 165.4-42.8 7.1-4 16.2-1.4 20.1 5.7 4 7.1 1.4 16.2-5.7 20.1-54.7 30.4-116.8 46.5-179.8 46.5-50 0-98.5-9.8-144.1-29.1-44.1-18.6-83.7-45.3-117.7-79.3s-60.7-73.6-79.3-117.7c-19.3-45.6-29.1-94.1-29.1-144.1s9.8-98.5 29.1-144.1c18.6-44.1 45.3-83.7 79.3-117.7s73.6-60.7 117.7-79.3c45.6-19.3 94.1-29.1 144.1-29.1s98.5 9.8 144.1 29.1c44.1 18.6 83.7 45.3 117.7 79.3s60.7 73.6 79.3 117.7c19.2 45.6 29 94.1 29 144.1z" fill="#bfbfbf" p-id="2629"></path></svg>